<?xml version="1.0" encoding="UTF-8"?>
<svg width="74px" height="77px" viewBox="0 0 74 77" version="1.1" xmlns="http://www.w3.org/2000/svg" xmlns:xlink="http://www.w3.org/1999/xlink">
    <!-- Generator: Sketch 49.1 (51147) - http://www.bohemiancoding.com/sketch -->
    <title>Page 1</title>
    <desc>Created with Sketch.</desc>
    <defs></defs>
    <g id="Page-1" stroke="none" stroke-width="1" fill="none" fill-rule="evenodd">
        <g id="Icons" transform="translate(-968.000000, -548.000000)">
            <g id="Page-1" transform="translate(970.000000, 550.000000)">
                <path d="M61.8009,37.4219 L61.8009,27.0489 C61.8009,12.1639 49.7339,0.0969 34.8489,0.0969 C19.9639,0.0969 7.8969,12.1639 7.8969,27.0489 L7.8969,37.4219" id="Stroke-1" stroke="#FAD503" stroke-width="4.193" stroke-linecap="round" stroke-linejoin="round"></path>
                <path d="M61.3539,30.7002 C65.9089,30.7002 69.6009,34.3922 69.6009,38.9472 L69.6009,47.2102 C69.6009,51.7642 65.9089,55.4562 61.3539,55.4562 L56.9859,55.4562 L56.9859,30.7002 L61.3539,30.7002 Z" id="Fill-3" fill="#FEFEFE"></path>
                <path d="M61.3539,30.7002 C65.9089,30.7002 69.6009,34.3922 69.6009,38.9472 L69.6009,47.2102 C69.6009,51.7642 65.9089,55.4562 61.3539,55.4562 L56.9859,55.4562 L56.9859,30.7002 L61.3539,30.7002 Z" id="Stroke-5" stroke="#FAD503" stroke-width="4.193" stroke-linecap="round" stroke-linejoin="round"></path>
                <g id="Group-10" transform="translate(7.000000, 34.117900)">
                    <path d="M0.896584959,0.7653 L0.8966,13.1473 C0.8966,15.6473 0.7786,33.3143 21.4456,33.3143" id="Fill-7" fill="#FEFEFE"></path>
                    <path d="M0.896584959,0.7653 L0.8966,13.1473 C0.8966,15.6473 0.7786,33.3143 21.4456,33.3143" id="Stroke-9" stroke="#FAD503" stroke-width="4.193" stroke-linecap="round" stroke-linejoin="round"></path>
                </g>
                <path d="M8.3436,55.4567 C3.7886,55.4567 0.0966,51.7647 0.0966,47.2097 L0.0966,38.9467 C0.0966,34.3927 3.7886,30.7007 8.3436,30.7007 L12.7116,30.7007 L12.7116,55.4567 L8.3436,55.4567 Z" id="Fill-11" fill="#FEFEFE"></path>
                <path d="M8.3436,55.4567 C3.7886,55.4567 0.0966,51.7647 0.0966,47.2097 L0.0966,38.9467 C0.0966,34.3927 3.7886,30.7007 8.3436,30.7007 L12.7116,30.7007 L12.7116,55.4567 L8.3436,55.4567 Z" id="Stroke-13" stroke="#FAD503" stroke-width="4.193" stroke-linecap="round" stroke-linejoin="round"></path>
                <path d="M37.9283,62.8428 L28.9343,62.8428 C26.4003,62.8428 24.3453,64.8978 24.3453,67.4318 C24.3453,69.9668 26.4003,72.0218 28.9343,72.0218 L37.9283,72.0218 C40.4623,72.0218 42.5173,69.9668 42.5173,67.4318 C42.5173,64.8978 40.4623,62.8428 37.9283,62.8428" id="Fill-15" fill="#FEFEFE"></path>
                <path d="M37.9283,62.8428 L28.9343,62.8428 C26.4003,62.8428 24.3453,64.8978 24.3453,67.4318 C24.3453,69.9668 26.4003,72.0218 28.9343,72.0218 L37.9283,72.0218 C40.4623,72.0218 42.5173,69.9668 42.5173,67.4318 C42.5173,64.8978 40.4623,62.8428 37.9283,62.8428 Z" id="Stroke-17" stroke="#FAD503" stroke-width="4.193" stroke-linecap="round" stroke-linejoin="round"></path>
                <path d="M46.2953,35.0267 C46.2953,31.4907 43.4293,28.6247 39.8933,28.6247 C37.8423,28.6247 36.0203,29.5937 34.8483,31.0957 C33.6773,29.5937 31.8553,28.6247 29.8033,28.6247 C26.2683,28.6247 23.4023,31.4907 23.4023,35.0267 C23.4023,36.8607 24.1773,38.5107 25.4133,39.6777 L25.4083,39.6807 L34.8423,48.7097 L34.8553,48.7097 L44.2893,39.6807 L44.2833,39.6777 C45.5203,38.5107 46.2953,36.8607 46.2953,35.0267 Z" id="Stroke-19" stroke="#FAD503" stroke-width="4.193" stroke-linecap="round" stroke-linejoin="round"></path>
            </g>
        </g>
    </g>
</svg>